<svg 
          width="16" 
          height="16" fill="none" 
          xmlns="http://www.w3.org/2000/svg">
          <path d="M 14.285714285714285 0 L 1.7142857142857142 0 C 1.2596288749149867 5.075305255429287e-16 0.8235935824257987 0.18061178071158274 0.5021026475088937 0.5021027156284877 C 0.18061171259198866 0.8235936505453927 4.758098676964956e-16 1.2596288749149867 0 1.7142857142857142 L 2.220446049250313e-16 14.285714285714285 C 6.026924990822279e-16 14.740371125085012 0.18061171259198866 15.176406621932982 0.5021026475088937 15.497897556849887 C 0.8235935824257987 15.819388491766793 1.2596288749149867 15.999999999999998 1.7142857142857142 16 L 6.616071428571428 16 L 6.616071428571428 10.560357230050222 L 4.366071428571428 10.560357230050222 L 4.366071428571428 8 L 6.616071428571428 8 L 6.616071428571428 6.048571450369698 C 6.616071428571428 3.828928538731166 7.937500544956752 2.6028570447649275 9.961429050990512 2.6028570447649275 C 10.930714743477957 2.6028570447649275 11.944285801478793 2.775714329310826 11.944285801478793 2.775714329310826 L 11.944285801478793 4.954285757882254 L 10.827500479561941 4.954285757882254 C 9.727143355778285 4.954285757882254 9.383928571428571 5.637142726353236 9.383928571428571 6.337499891008649 L 9.383928571428571 8 L 11.840357099260602 8 L 11.447499956403458 10.560357230050222 L 9.383928571428571 10.560357230050222 L 9.383928571428571 16 L 14.285714285714285 16 C 14.740371125085012 15.999999999999998 15.176406621932982 15.819388491766793 15.497897556849887 15.497897556849887 C 15.819388491766793 15.176406621932982 16 14.740371125085012 16 14.285714285714285 L 16 1.7142857142857142 C 15.999999999999996 1.2596288749149867 15.819388491766793 0.8235936505453927 15.497897556849887 0.5021027156284877 C 15.176406621932982 0.18061178071158274 14.740371125085012 2.5376526277146434e-16 14.285714285714285 0 L 14.285714285714285 0 Z" fill="rgb(255,255,255)"/>
        </svg>