<svg 
          width="167" 
          height="121" fill="none" 
          xmlns="http://www.w3.org/2000/svg">
          <path d="M 83.5 0 C 37.38230879490192 0 0 23.837000923156733 0 53.239999999999995 C 0 69.54112014770507 11.51868399289938 84.11186491966248 29.618915264423077 93.878984375 C 30.081071081069798 101.31314712524414 28.552365147150482 111.57836878061295 14.941180889423078 116.31125 C 14.932799179048745 116.31437330141897 14.924435931983261 116.31752477647271 14.916090745192308 116.320703125 C 14.307972030570875 116.49497387737036 13.784436530361955 116.80431464910507 13.414801505895761 117.20776443481445 C 13.045166481429568 117.61121422052383 12.84686585862521 118.08974333405494 12.846153846153847 118.58 C 12.846153846153847 119.22182392895222 13.184512019443972 119.83736223191022 13.786792296629686 120.29120025634765 C 14.389072573815401 120.74503828078508 15.205939318698185 121 16.057692307692307 121 C 16.134365862127964 121 16.206943098348205 120.99084695499593 16.28350360576923 120.99054687499999 C 16.300230327214543 120.99064534907839 16.316957172785457 120.99064534907839 16.33368389423077 120.99054687499999 C 31.967620143523582 120.91503319472073 45.239487152833206 114.54844355106354 54.39543269230769 107.82234375 C 57.29866341100289 105.6879036796093 61.34600485975926 104.6375481313467 65.33473557692308 105.203828125 C 71.17973574537498 106.0411480909586 77.25676921239265 106.47999999999999 83.5 106.47999999999999 C 129.61769120509808 106.47999999999999 167 82.64299907684325 167 53.239999999999995 C 167 23.837000923156733 129.61769120509808 0 83.5 0 Z" fill="rgb(255,107,67)"/>
        </svg>